# xmcd
#
# Track frame offsets:
#       150
#       12725
#       24020
#       54025
#       69697
#       94680
#       112247
#       126365
#       147240
#
# Disc length: 2228 seconds
#
# Revision: 0
# Processed by: cddbd v1.4PL0 Copyright (c) Steve Scherf et al.
# Submitted via: CD-DA_X-Tractor v0.21
#
DISCID=7908b209
DTITLE=Bram Vermeulen - De beuk erin - cd 2
DYEAR=1900
DGENRE=
TTITLE0=1+1=1
TTITLE1=Laat me met rust
TTITLE2=Alsjeblieft
TTITLE3=Voorbij
TTITLE4=Mevrouw de eenzaamheid
TTITLE5=Laat dit nooit overgaan
TTITLE6=Bloed
TTITLE7=De beuk erin III
TTITLE8=Teveel
EXTD=
EXTT0=
EXTT1=
EXTT2=
EXTT3=
EXTT4=
EXTT5=
EXTT6=
EXTT7=
EXTT8=
PLAYORDER=
